<?xml version="1.0" encoding="UTF-8" standalone="no"?>
<!-- Created with Inkscape (http://www.inkscape.org/) -->

<svg
   width="210mm"
   height="297mm"
   viewBox="0 0 210 297"
   version="1.1"
   id="svg1"
   inkscape:version="1.3.2 (091e20e, 2023-11-25, custom)"
   sodipodi:docname="Pimenta.svg"
   xmlns:inkscape="http://www.inkscape.org/namespaces/inkscape"
   xmlns:sodipodi="http://sodipodi.sourceforge.net/DTD/sodipodi-0.dtd"
   xmlns="http://www.w3.org/2000/svg"
   xmlns:svg="http://www.w3.org/2000/svg">
  <sodipodi:namedview
     id="namedview1"
     pagecolor="#505050"
     bordercolor="#ffffff"
     borderopacity="1"
     inkscape:showpageshadow="0"
     inkscape:pageopacity="0"
     inkscape:pagecheckerboard="1"
     inkscape:deskcolor="#505050"
     inkscape:document-units="mm"
     inkscape:zoom="0.53613281"
     inkscape:cx="304.02914"
     inkscape:cy="409.41348"
     inkscape:window-width="1298"
     inkscape:window-height="745"
     inkscape:window-x="-8"
     inkscape:window-y="-8"
     inkscape:window-maximized="1"
     inkscape:current-layer="layer1" />
  <defs
     id="defs1">
    <inkscape:path-effect
       effect="bspline"
       id="path-effect17"
       is_visible="true"
       lpeversion="1.3"
       weight="33.333333"
       steps="2"
       helper_size="0"
       apply_no_weight="true"
       apply_with_weight="true"
       only_selected="false"
       uniform="false" />
    <inkscape:path-effect
       effect="bspline"
       id="path-effect16"
       is_visible="true"
       lpeversion="1.3"
       weight="33.333333"
       steps="2"
       helper_size="0"
       apply_no_weight="true"
       apply_with_weight="true"
       only_selected="false"
       uniform="false" />
    <inkscape:path-effect
       effect="bspline"
       id="path-effect15"
       is_visible="true"
       lpeversion="1.3"
       weight="33.333333"
       steps="2"
       helper_size="0"
       apply_no_weight="true"
       apply_with_weight="true"
       only_selected="false"
       uniform="false" />
    <inkscape:path-effect
       effect="bspline"
       id="path-effect14"
       is_visible="true"
       lpeversion="1.3"
       weight="33.333333"
       steps="2"
       helper_size="0"
       apply_no_weight="true"
       apply_with_weight="true"
       only_selected="false"
       uniform="false" />
    <inkscape:path-effect
       effect="bspline"
       id="path-effect13"
       is_visible="true"
       lpeversion="1.3"
       weight="33.333333"
       steps="2"
       helper_size="0"
       apply_no_weight="true"
       apply_with_weight="true"
       only_selected="false"
       uniform="false" />
    <inkscape:path-effect
       effect="bspline"
       id="path-effect12"
       is_visible="true"
       lpeversion="1.3"
       weight="33.333333"
       steps="2"
       helper_size="0"
       apply_no_weight="true"
       apply_with_weight="true"
       only_selected="false"
       uniform="false" />
    <linearGradient
       id="swatch6"
       inkscape:swatch="solid">
      <stop
         style="stop-color:#e00a0a;stop-opacity:1;"
         offset="0"
         id="stop6" />
    </linearGradient>
    <inkscape:path-effect
       effect="bspline"
       id="path-effect2"
       is_visible="true"
       lpeversion="1.3"
       weight="33.333333"
       steps="2"
       helper_size="0"
       apply_no_weight="true"
       apply_with_weight="true"
       only_selected="false"
       uniform="false" />
  </defs>
  <g
     inkscape:label="Camada 1"
     inkscape:groupmode="layer"
     id="layer1">
    <path
       style="fill:#000000;stroke-width:0.264583"
       d="M 32.453238,34.895956 Z"
       id="path1" />
    <path
       style="fill:#e00a0a;stroke-width:0.264583;fill-opacity:1;fill-rule:nonzero;stroke:#a00a0a;stroke-opacity:1"
       d="m 37.68763,63.219839 c -5.118073,0.40712 -8.491346,0.872399 -10.817756,3.024354 -2.326411,2.151955 -3.605904,5.990435 -4.420146,17.506292 -0.814243,11.515857 -1.163195,30.708245 5.583494,49.435925 6.74669,18.72768 20.588475,36.98953 42.747711,48.67973 22.159236,11.6902 52.634427,16.80817 68.977387,20.47226 16.34296,3.6641 18.55299,5.87414 19.73871,7.31761 1.18572,1.44347 1.34707,2.12032 1.63338,2.47931 0.28631,0.35899 0.69756,0.40012 1.08825,0.23561 0.39069,-0.16451 0.76081,-0.53463 1.2306,-1.88236 0.46978,-1.34773 1.03919,-3.67298 0.91677,-6.98759 -0.12242,-3.3146 -0.93664,-7.61835 -4.30997,-11.68958 -3.37334,-4.07124 -9.30553,-7.90971 -17.56435,-11.1667 C 134.2329,177.38772 123.648,174.71242 110.38738,164.06896 97.126754,153.42551 81.191256,134.81471 72.816218,118.87875 64.441181,102.9428 63.626959,89.682605 62.17294,80.667769 60.718921,71.652933 58.625205,66.883914 54.146823,64.67384 49.66844,62.463767 42.805704,62.812719 37.68763,63.219839 Z"
       id="path2"
       inkscape:path-effect="#path-effect2"
       inkscape:original-d="m 35.942833,63.161679 c -3.373276,0.465281 -6.746549,0.930558 -10.119826,1.395839 -1.279544,3.83863 -2.559037,7.67711 -3.838555,11.515664 -0.348967,19.19316 -0.697919,38.385548 -1.046879,57.578328 13.84234,18.26258 27.684125,36.52443 41.526188,54.78665 30.476409,5.11817 60.951599,10.23614 91.427399,15.35422 2.21012,2.21012 4.42016,4.42015 6.63023,6.63023 0.16136,0.67687 0.32272,1.35372 0.48407,2.03058 0.41126,0.0411 0.82251,0.0822 1.23376,0.12337 0.37014,-0.37013 0.74026,-0.74025 1.11038,-1.11038 0.56944,-2.32534 1.13885,-4.65059 1.70827,-6.97588 -0.81426,-4.30392 -1.62848,-8.60767 -2.44272,-12.91151 -5.93243,-3.83863 -11.86462,-7.67711 -17.79694,-11.51566 C 134.2329,177.38772 123.648,174.71242 113.06289,172.03706 97.126757,153.42551 81.191255,134.81471 65.255436,116.20353 64.44118,102.9428 63.62696,89.682605 62.81272,76.422143 60.718921,71.652933 58.625205,66.883914 56.531448,62.1148 49.66844,62.463767 42.805704,62.81272 35.942833,63.161679 Z" />
    <path
       style="fill:#ffffff;fill-opacity:0.3580645;fill-rule:nonzero;stroke:none;stroke-width:0.264583;stroke-opacity:1"
       d="m 154.24012,195.01023 c 0.23264,-0.52344 -3.02431,-3.19879 -8.0843,-5.64153 -5.05998,-2.44274 -11.92271,-4.65277 -18.90198,-7.61897 -6.97926,-2.96619 -14.07462,-6.68835 -21.75182,-12.50442 C 97.824827,163.42923 89.566285,155.51964 81.772782,145.63234 73.97928,135.74503 66.651273,123.88064 62.231105,114.22602 57.810937,104.5714 56.298809,97.127075 55.368247,91.892652 54.437684,86.658229 54.088732,83.633973 53.739769,81.831009 c -0.348964,-1.802963 -0.697917,-2.384551 -1.454008,-2.675351 -0.756091,-0.290799 -1.919266,-0.290799 -2.733509,-0.05815 -0.814243,0.232644 -1.279513,0.697914 -0.639737,6.921146 0.639776,6.223233 2.384539,18.203941 7.211893,30.301321 4.827353,12.09739 12.736945,24.31073 21.170225,34.19799 8.433279,9.88727 17.389723,17.4479 25.706667,23.03129 8.31695,5.58339 15.99391,9.18924 23.14765,11.98093 7.15373,2.7917 13.78383,4.76909 18.9601,6.57207 5.17627,1.80297 8.89843,3.43142 9.13107,2.90798 z"
       id="path12"
       inkscape:path-effect="#path-effect12"
       inkscape:original-d="m 157.72972,197.16215 c -3.25696,-2.67536 -6.51391,-5.35072 -9.77087,-8.02607 -6.86301,-2.21012 -13.72574,-4.42016 -20.58861,-6.63023 -7.09566,-3.72231 -14.19102,-7.44447 -21.28654,-11.16671 C 97.824829,163.42923 89.566286,155.51964 81.307576,147.60989 73.97928,135.74503 66.651274,123.88064 59.323125,112.01602 57.810936,104.5714 56.298808,97.127075 54.786651,89.682605 54.437684,86.658229 54.08873,83.633973 53.739772,80.609656 c -0.348967,-0.58161 -0.697921,-1.163198 -1.04688,-1.744797 -1.163222,0 -2.326397,0 -3.489595,0 -0.465288,0.465288 -0.930558,0.930558 -1.395838,1.395838 1.744832,11.981185 3.489595,23.961893 5.234392,35.942833 7.909909,12.21383 15.819501,24.42717 23.729251,36.64075 8.956807,7.56095 17.913257,15.12158 26.869888,22.68238 7.67726,3.60598 15.35422,7.21183 23.03133,10.81774 6.63036,1.97748 13.26046,3.95488 19.89069,5.93231 3.72231,1.62851 7.44447,3.25696 11.16671,4.88544 z" />
    <path
       style="fill:#a80000;fill-opacity:1;fill-rule:nonzero;stroke:none;stroke-width:0.264583;stroke-opacity:1"
       d="m 31.830965,63.74418 c -1.110382,0.08225 -3.331147,0.246752 -5.675313,3.475149 -2.344166,3.228398 -4.811633,9.520439 -4.215281,22.536785 0.596353,13.016346 4.256429,32.756086 9.602786,47.150026 5.346357,14.39394 12.37864,23.44132 21.508563,31.23462 9.129924,7.79331 20.356901,14.3321 29.137211,18.21845 8.780311,3.88635 15.113474,5.12008 18.485749,5.57246 3.37228,0.45237 3.78353,0.12338 4.07141,-0.32901 0.28787,-0.45238 0.45237,-1.02812 -0.16452,-2.13852 -0.61689,-1.1104 -2.01513,-2.75538 -5.058446,-4.48266 -3.043316,-1.72728 -7.731502,-3.53676 -14.764018,-8.63637 C 77.726589,171.24549 68.350213,162.8561 61.276618,153.52056 54.203023,144.18502 49.432584,133.9039 46.18367,120.6614 42.934756,107.4189 41.207529,91.215865 40.009748,81.58738 38.811968,71.958895 38.143694,68.905402 37.444557,67.018773 36.74542,65.132145 36.01546,64.412466 35.259776,64.047478 c -0.755684,-0.364987 -1.537048,-0.37527 -1.927738,-0.380411 -0.390691,-0.0051 -0.390691,-0.0051 -1.501073,0.07711 z"
       id="path13"
       inkscape:path-effect="#path-effect13"
       inkscape:original-d="m 32.941347,63.661929 c -2.220764,0.164503 -4.441529,0.329002 -6.662295,0.493504 -2.467565,6.292294 -4.935033,12.584335 -7.40255,18.876502 3.660223,19.740525 7.3203,39.480265 10.980449,59.220405 7.032564,9.04774 14.064845,18.09512 21.097269,27.14268 11.227424,6.53905 22.454401,13.07784 33.6816,19.61676 6.333422,1.23378 12.666586,2.46751 18.99988,3.70127 0.41126,-0.32901 0.82251,-0.658 1.23376,-0.987 0.1645,-0.57577 0.329,-1.15151 0.4935,-1.72727 -1.39828,-1.64504 -2.79652,-3.29002 -4.19478,-4.93503 -4.688371,-1.80955 -9.37656,-3.61902 -14.064842,-5.42854 C 77.726587,171.24549 68.350211,162.8561 58.973648,154.46654 54.20302,144.18502 49.432585,133.9039 44.662052,123.62258 42.934755,107.4189 41.207528,91.215865 39.480267,75.012507 c -0.6683,-3.053612 -1.336572,-6.107105 -2.004859,-9.160656 -0.729988,-0.719706 -1.459947,-1.439386 -2.189919,-2.159076 -0.781397,-0.01029 -1.562761,-0.02056 -2.344142,-0.03085 z"
       transform="matrix(1.0377694,0,0,1.010864,-3.9659016,-0.69165962)" />
    <path
       style="fill:#008000;fill-opacity:1;fill-rule:nonzero;stroke:none;stroke-width:0.264583;stroke-opacity:1"
       d="m 28.967858,63.410108 c -0.0333,0.682129 0.112104,1.00201 1.079031,1.052897 0.966926,0.05089 2.755308,-0.167207 5.350729,0.03636 2.595421,0.203566 5.997709,0.828773 9.000242,1.04687 3.002532,0.218098 5.605135,0.02908 7.008246,-0.2181 1.403111,-0.247182 1.606668,-0.552518 1.526694,-0.901481 -0.07997,-0.348964 -0.443467,-0.741536 -1.424932,-1.991995 C 50.526403,61.184199 48.927037,59.075945 47.407595,56.749523 45.888152,54.423101 44.448722,51.878654 43.103761,47.211252 41.7588,42.543849 40.508387,35.753815 39.330638,31.544475 38.152889,27.335134 37.047872,25.706688 35.670192,24.816112 34.292513,23.925536 32.642259,23.77287 31.992936,23.867226 c -0.649324,0.09436 -0.297697,0.435723 0.160862,0.778625 0.458558,0.342902 1.02402,0.68732 1.629734,1.741643 0.605713,1.054324 1.251642,2.818478 2.098062,6.579546 0.84642,3.761068 1.893278,9.518785 2.074086,12.942004 0.180807,3.42322 -0.504431,4.511784 -2.070558,6.577741 -1.566126,2.065957 -4.013032,5.109165 -5.342507,7.153001 -1.329475,2.043835 -1.541461,3.088193 -1.574757,3.770322 z"
       id="path14"
       inkscape:path-effect="#path-effect14"
       inkscape:original-d="m 28.789164,63.772359 c 0.145399,0.319878 0.290798,0.639759 0.436197,0.959638 1.788454,-0.218104 3.576836,-0.4362 5.365256,-0.654299 3.402422,0.625232 6.80471,1.25044 10.207066,1.875658 2.602709,-0.189024 5.205312,-0.378039 7.807971,-0.56706 0.203562,-0.305345 0.407119,-0.61068 0.610679,-0.916019 -0.363508,-0.392587 -0.727001,-0.785159 -1.090499,-1.177738 -1.59943,-2.10834 -3.198796,-4.216595 -4.798195,-6.324891 C 45.888153,54.4231 44.448724,51.878653 43.009264,49.334157 41.758801,42.543849 40.508388,35.753815 39.257948,28.963643 38.15289,27.335133 37.047873,25.706687 35.942833,24.078209 34.292513,23.925536 32.642259,23.77287 30.991971,23.6202 c 0.351642,0.341381 0.703268,0.682749 1.054902,1.024123 0.565483,0.344431 1.130945,0.688848 1.696418,1.033272 0.645954,1.764223 1.291881,3.528378 1.937824,5.292566 1.046898,5.757947 2.093757,11.515664 3.140636,17.273498 -0.685265,1.088604 -1.370502,2.177169 -2.055752,3.265752 -2.447004,3.04333 -4.893907,6.086541 -7.340864,9.12981 -0.211995,1.0444 -0.423982,2.088758 -0.635971,3.133138 z" />
    <path
       style="fill:#009400;fill-opacity:1;fill-rule:nonzero;stroke:none;stroke-width:0.264583;stroke-opacity:1"
       d="m 32.078834,24.456249 c 0.236276,0.13813 0.708824,0.414389 1.261349,0.810609 0.552526,0.39622 1.185002,0.912378 1.762972,1.170462 0.577971,0.258085 1.101399,0.258085 1.355848,0.09087 0.254449,-0.167213 0.239909,-0.501626 0.178114,-0.725179 -0.0618,-0.223553 -0.170843,-0.336236 -0.29398,-0.454375 C 36.22,25.2305 36.082782,25.106913 35.942833,24.997862 35.802885,24.888812 35.660213,24.794303 35.461649,24.680708 35.263084,24.567113 35.00864,24.434439 34.728743,24.320844 34.448845,24.20725 34.14351,24.112742 33.832716,24.034589 c -0.310795,-0.07815 -0.627034,-0.139947 -0.886938,-0.170845 -0.259905,-0.0309 -0.463459,-0.0309 -0.657933,-0.02181 -0.194475,0.0091 -0.379855,0.02726 -0.48618,0.0627 -0.106324,0.03544 -0.133588,0.08815 -0.149945,0.123594 -0.01636,0.03545 -0.02181,0.05361 -0.01181,0.08633 0.01,0.03272 0.03544,0.07996 0.07179,0.116315 0.03635,0.03635 0.0836,0.0618 0.107233,0.07452 0.02363,0.01272 0.02362,0.01273 0.259893,0.150859 z"
       id="path15"
       inkscape:path-effect="#path-effect15"
       inkscape:original-d="m 31.842559,24.318119 c 0.472551,0.27626 0.945099,0.552519 1.417648,0.828779 0.632502,0.51618 1.264978,1.032338 1.897467,1.548507 0.523452,0 1.04688,0 1.570318,0 -0.01453,-0.334425 -0.02908,-0.668838 -0.04362,-1.003258 -0.10905,-0.112687 -0.218098,-0.225369 -0.327148,-0.338054 -0.137224,-0.123593 -0.274442,-0.24718 -0.411663,-0.37077 -0.142677,-0.09451 -0.285348,-0.18902 -0.428022,-0.28353 -0.254455,-0.132679 -0.508899,-0.265354 -0.763349,-0.398032 -0.305345,-0.09451 -0.61068,-0.189019 -0.916019,-0.283529 -0.316249,-0.0618 -0.632489,-0.12359 -0.948733,-0.185385 -0.203565,0 -0.407119,0 -0.610679,0 -0.185388,0.01818 -0.370769,0.03635 -0.556154,0.05452 -0.02726,0.05271 -0.05453,0.105415 -0.08179,0.158122 -0.0055,0.01817 -0.0109,0.03635 -0.01635,0.05452 0.02545,0.04726 0.05089,0.09451 0.07634,0.141765 0.04725,0.02545 0.09451,0.05089 0.141764,0.07634 z"
       transform="matrix(1.0061195,0,0,1.0164799,-0.19359066,-0.43909266)" />
    <path
       style="fill:#009400;fill-opacity:1;fill-rule:nonzero;stroke:none;stroke-width:0.264583;stroke-opacity:1"
       d="m 29.46112,63.317505 c 0.03598,-0.344424 0.107954,-1.033271 0.508932,-1.95346 0.400979,-0.92019 1.130939,-2.071676 1.974017,-3.223196 0.843078,-1.151519 1.799221,-2.303004 2.678282,-3.413397 0.879061,-1.110393 1.680988,-2.179628 2.112805,-2.714257 0.431817,-0.534629 0.493502,-0.534629 0.55519,-0.462658 0.06169,0.07197 0.123374,0.215906 0.195345,0.699137 0.07197,0.483231 0.154219,1.30572 0.37013,2.513791 0.215912,1.20807 0.56547,2.801642 0.987009,4.143365 0.421539,1.341724 0.915032,2.431521 1.300585,3.269455 0.385552,0.837934 0.663142,1.423957 0.781377,1.752961 0.118234,0.329004 0.07711,0.400971 -0.02056,0.447237 -0.09767,0.04627 -0.251891,0.06683 -0.586039,0.05141 -0.334148,-0.01542 -0.848204,-0.06683 -1.701566,-0.190206 -0.853362,-0.123378 -2.045972,-0.31872 -3.084394,-0.416392 -1.038422,-0.09767 -1.922596,-0.09767 -2.858207,-0.07197 -0.93561,0.0257 -1.922595,0.07711 -2.472648,0.06683 -0.550052,-0.01028 -0.663144,-0.08225 -0.719692,-0.118234 -0.05655,-0.03598 -0.05655,-0.03599 -0.02056,-0.380411 z"
       id="path16"
       inkscape:path-effect="#path-effect16"
       inkscape:original-d="m 29.425135,63.661929 c 0.07197,-0.688848 0.143939,-1.377695 0.215908,-2.066543 0.729988,-1.151531 1.45995,-2.303016 2.189922,-3.454525 0.956183,-1.15153 1.912326,-2.303015 2.868488,-3.454524 0.80196,-1.069277 1.603885,-2.138513 2.40583,-3.207771 0.06169,0 0.123375,0 0.185062,0 0.06169,0.143941 0.123376,0.287877 0.185063,0.431816 0.08225,0.822523 0.164502,1.645012 0.246753,2.467517 0.349573,1.593636 0.69913,3.187208 1.048695,4.780814 0.493514,1.08984 0.987007,2.179638 1.48051,3.269459 0.277601,0.586047 0.555191,1.17207 0.832787,1.758106 -0.04113,0.07197 -0.08225,0.143939 -0.123375,0.215908 -0.154223,0.02056 -0.308441,0.04112 -0.462661,0.06169 -0.514075,-0.05141 -1.028131,-0.102815 -1.542198,-0.154221 -1.192657,-0.19535 -2.385267,-0.390689 -3.5779,-0.586036 -0.884211,0 -1.768385,0 -2.65258,0 -0.987026,0.05141 -1.974011,0.102815 -2.961018,0.15422 -0.113099,-0.07197 -0.22619,-0.143938 -0.339286,-0.215908 z" />
    <path
       style="fill:#ffffff;fill-opacity:0.80322582;fill-rule:nonzero;stroke:none;stroke-width:0.264583;stroke-opacity:1"
       d="M 48.445577,62.417891 C 47.725885,61.297227 46.2865,59.0559 45.083576,56.598637 c -1.202924,-2.457262 -2.169348,-5.130353 -3.043268,-8.317598 -0.87392,-3.187245 -1.655285,-6.888448 -2.231043,-9.695267 -0.575758,-2.806819 -0.945877,-4.719106 -1.136079,-5.683618 -0.190201,-0.964513 -0.200485,-0.981225 -0.21847,-0.989579 -0.01799,-0.0084 -0.04371,-0.0084 -0.05913,0.0013 -0.01542,0.0096 -0.02056,0.02892 0.190204,1.142531 0.21077,1.113615 0.637436,3.321487 1.210627,6.142457 0.57319,2.82097 1.292869,6.254862 2.141088,9.311011 0.848219,3.056149 1.824925,5.734381 3.027853,8.178787 1.202928,2.444406 2.632003,4.654845 3.35298,5.766191 0.720978,1.111347 0.733824,1.12355 0.750865,1.131909 0.01704,0.0084 0.03823,0.01285 0.05591,0.01 0.01767,-0.0029 0.03181,-0.01317 0.03791,-0.02409 0.0061,-0.01092 0.0042,-0.02249 0.0032,-0.02828 -9.67e-4,-0.0058 -9.54e-4,-0.0058 -0.720646,-1.12645 z"
       id="path17"
       inkscape:path-effect="#path-effect17"
       inkscape:original-d="m 49.165269,63.538554 c -1.439384,-2.241327 -2.878768,-4.482655 -4.318154,-6.723983 -0.966462,-2.673196 -1.932887,-5.346287 -2.89933,-8.019428 -0.781397,-3.701349 -1.562762,-7.402552 -2.344143,-11.103827 -0.370133,-1.912363 -0.740253,-3.82465 -1.110382,-5.736976 -0.01029,-0.01669 -0.02056,-0.03341 -0.03084,-0.05012 -0.02569,0 -0.05141,0 -0.07711,0 -0.0051,0.01929 -0.01027,0.03856 -0.01543,0.05783 0.426683,2.207955 0.853347,4.415827 1.280022,6.62374 0.719709,3.434027 1.439386,6.867919 2.15908,10.30188 0.976743,2.678337 1.95345,5.356569 2.930175,8.034853 1.429131,2.210528 2.858207,4.420966 4.287309,6.631451 0.01286,0.0122 0.02569,0.02442 0.03856,0.03663 0.02122,0.0045 0.04241,0.009 0.06362,0.01349 0.01413,-0.01029 0.02827,-0.02056 0.04241,-0.03084 -0.0019,-0.01156 -0.0039,-0.02312 -0.0058,-0.0347 z" />
  </g>
</svg>
